<svg xmlns="http://www.w3.org/2000/svg"
version="1.1"
xmlns:xlink="http://www.w3.org/1999/xlink"
width="512"
height="512"
viewBox="0 0 682.667 682.667"
xml:space="preserve">

<g>
<defs>
<clipPath id="a" clipPathUnits="userSpaceOnUse">
<path d="M0 512h512V0H0Z" fill="#ffffff"></path>
</clipPath>
</defs>

<g clip-path="url(#a)" transform="matrix(1.33333 0 0 -1.33333 0 682.667)">

<path d="M0 0h-253.487c-14.576 0-26.394-11.816-26.394-26.393v-363.773c0-14.577 11.818-26.394 26.394-26.394H7.975c14.576 0 26.393 11.817 26.393 26.394v223.896"
fill="none" stroke="#ffffff" stroke-width="20" stroke-linecap="round" stroke-linejoin="round"
stroke-miterlimit="10" transform="translate(317.232 480.353)"/>

<path d="M284.575 359.146H104.377v42.234h180.198z"
fill="none" stroke="#ffffff" stroke-width="20" stroke-linecap="round" stroke-linejoin="round"
stroke-miterlimit="10"/>

<path d="M0 0h180.198"
transform="translate(104.377 304.367)"
fill="none" stroke="#ffffff" stroke-width="20" stroke-linecap="round" stroke-linejoin="round"/>

<path d="M0 0h180.198"
transform="translate(104.377 256.938)"
fill="none" stroke="#ffffff" stroke-width="20" stroke-linecap="round" stroke-linejoin="round"/>

<path d="M0 0h180.198"
transform="translate(104.377 209.507)"
fill="none" stroke="#ffffff" stroke-width="20" stroke-linecap="round" stroke-linejoin="round"/>

<path d="M0 0h180.198"
transform="translate(104.377 162.077)"
fill="none" stroke="#ffffff" stroke-width="20" stroke-linecap="round" stroke-linejoin="round"/>

<path d="M0 0c0-52.498-42.55-95.057-95.037-95.057-52.487 0-95.036 42.559-95.036 95.057 0 52.498 42.549 95.057 95.036 95.057S0 52.498 0 0Z"
transform="translate(474.648 406.943)"
fill="none" stroke="#ffffff" stroke-width="20" stroke-linecap="round" stroke-linejoin="round"/>

<path d="M0 0v-68.379"
transform="translate(379.655 420.044)"
fill="none" stroke="#ffffff" stroke-width="20" stroke-linecap="round" stroke-linejoin="round"/>

<path d="M0 0c0-5.522-4.477-10-10-10-5.522 0-10 4.478-10 10 0 5.523 4.478 10 10 10C-4.477 10 0 5.523 0 0"
transform="translate(389.611 452.222)"
fill="#ffffff"/>

<path d="M0 0v-50.793"
transform="translate(419.724 316.3)"
fill="none" stroke="#ffffff" stroke-width="20" stroke-linecap="round" stroke-linejoin="round"/>

<path d="M0 0v-138.702c0-14.577-11.816-26.394-26.394-26.394h-261.46c-14.578 0-26.394 11.817-26.394 26.394v24.4"
transform="translate(419.724 175.096)"
fill="none" stroke="#ffffff" stroke-width="20" stroke-linecap="round" stroke-linejoin="round"/>

<path d="M0 0v0"
transform="translate(419.724 220.484)"
fill="none" stroke="#ffffff" stroke-width="20" stroke-linecap="round" stroke-linejoin="round"/>

</g>
</g>
</svg>